<svg width="24" height="25" viewBox="0 0 24 25" fill="none" xmlns="http://www.w3.org/2000/svg">
<path d="M21 3.99795V21.9959L15 21.9938V24.9958L21 24.9979C22.8935 24.9979 24 23.8915 24 21.998V4.00004C24 2.10649 22.8935 0.997948 21 0.997948L15 0.995834V3.99583L21 3.99795Z" fill="#161616"/>
<path d="M3 21.9979V3.99795L9 3.99585V0.99585L3 0.997948C1.10645 0.997948 0 2.10649 0 4.00004V22C0 23.8936 1.10645 24.9979 3 24.9979L9 24.9959V21.9958L3 21.9979Z" fill="#161616"/>
<path d="M6.34314 13V7.34314H12V13H17.6568V18.6569H12L6.34314 13Z" fill="#161616"/>
</svg>