<svg width="14" height="14" viewBox="0 0 14 14" fill="none" xmlns="http://www.w3.org/2000/svg">
    <path d="M2.17244 3.06915L0 0.932542L0.947889 0L3.11966 2.13727H13.3301C13.4345 2.13726 13.5374 2.16127 13.6308 2.20737C13.7241 2.25347 13.8051 2.32039 13.8675 2.40279C13.9298 2.48519 13.9717 2.58079 13.9898 2.68196C14.008 2.78312 14.0018 2.88705 13.9718 2.98545L12.3641 8.25778C12.3227 8.3936 12.2379 8.51267 12.1223 8.59732C12.0067 8.68197 11.8665 8.72768 11.7223 8.72768H3.51221V10.0458H10.881V11.3638H2.84233C2.66466 11.3638 2.49427 11.2944 2.36865 11.1708C2.24302 11.0472 2.17244 10.8796 2.17244 10.7048V3.06915ZM3.51221 3.45535V7.40959H11.2239L12.4297 3.45535H3.51221ZM3.17727 14C2.91077 14 2.65519 13.8958 2.46675 13.7105C2.27831 13.5251 2.17244 13.2736 2.17244 13.0114C2.17244 12.7493 2.27831 12.4978 2.46675 12.3124C2.65519 12.127 2.91077 12.0229 3.17727 12.0229C3.44377 12.0229 3.69935 12.127 3.88779 12.3124C4.07623 12.4978 4.1821 12.7493 4.1821 13.0114C4.1821 13.2736 4.07623 13.5251 3.88779 13.7105C3.69935 13.8958 3.44377 14 3.17727 14ZM11.2159 14C10.9494 14 10.6938 13.8958 10.5054 13.7105C10.3169 13.5251 10.2111 13.2736 10.2111 13.0114C10.2111 12.7493 10.3169 12.4978 10.5054 12.3124C10.6938 12.127 10.9494 12.0229 11.2159 12.0229C11.4824 12.0229 11.738 12.127 11.9264 12.3124C12.1149 12.4978 12.2207 12.7493 12.2207 13.0114C12.2207 13.2736 12.1149 13.5251 11.9264 13.7105C11.738 13.8958 11.4824 14 11.2159 14Z" fill="#FFFFFF"/>
</svg>
