<svg width="60" height="60" viewBox="0 0 60 60" fill="none" xmlns="http://www.w3.org/2000/svg">
    <rect x="0.5" y="0.5" width="59" height="59" rx="7.5" stroke="#E9E9E9"/>
    <g clip-path="url(#clip0_108_3200)">
        <path d="M37.938 26H39C39.5304 26 40.0391 26.2107 40.4142 26.5858C40.7893 26.9609 41 27.4696 41 28V32C41 32.5305 40.7893 33.0392 40.4142 33.4142C40.0391 33.7893 39.5304 34 39 34H37.938C37.6942 35.9333 36.7533 37.7112 35.2917 39C33.8302 40.2888 31.9486 41 30 41V39C31.5913 39 33.1174 38.3679 34.2426 37.2427C35.3679 36.1174 36 34.5913 36 33V27C36 25.4087 35.3679 23.8826 34.2426 22.7574C33.1174 21.6322 31.5913 21 30 21C28.4087 21 26.8826 21.6322 25.7574 22.7574C24.6321 23.8826 24 25.4087 24 27V34H21C20.4696 34 19.9609 33.7893 19.5858 33.4142C19.2107 33.0392 19 32.5305 19 32V28C19 27.4696 19.2107 26.9609 19.5858 26.5858C19.9609 26.2107 20.4696 26 21 26H22.062C22.306 24.0669 23.2471 22.2893 24.7086 21.0007C26.1701 19.7121 28.0516 19.0011 30 19.0011C31.9484 19.0011 33.8299 19.7121 35.2914 21.0007C36.7529 22.2893 37.694 24.0669 37.938 26ZM21 28V32H22V28H21ZM38 28V32H39V28H38ZM25.76 33.785L26.82 32.089C27.7731 32.6861 28.8754 33.0018 30 33C31.1246 33.0018 32.2269 32.6861 33.18 32.089L34.24 33.785C32.9693 34.5812 31.4995 35.0023 30 35C28.5005 35.0023 27.0307 34.5812 25.76 33.785Z" fill="#161616"/>
    </g>
    <defs>
        <clipPath id="clip0_108_3200">
            <rect width="24" height="24" fill="white" transform="translate(18 18)"/>
        </clipPath>
    </defs>
</svg>